<?xml version="1.0" encoding="UTF-8" standalone="no"?>
<!-- Created with Inkscape (http://www.inkscape.org/) -->

<svg
   width="64"
   height="64"
   viewBox="0 0 16.933333 16.933333"
   version="1.1"
   id="svg5"
   sodipodi:docname="kofi-connection.svg"
   inkscape:version="1.1 (c4e8f9e, 2021-05-24)"
   xmlns:inkscape="http://www.inkscape.org/namespaces/inkscape"
   xmlns:sodipodi="http://sodipodi.sourceforge.net/DTD/sodipodi-0.dtd"
   xmlns="http://www.w3.org/2000/svg"
   xmlns:svg="http://www.w3.org/2000/svg">
  <sodipodi:namedview
     id="namedview2036"
     pagecolor="#505050"
     bordercolor="#ffffff"
     borderopacity="1"
     inkscape:pageshadow="0"
     inkscape:pageopacity="0"
     inkscape:pagecheckerboard="1"
     showgrid="false"
     inkscape:zoom="7.3590711"
     inkscape:cx="29.419474"
     inkscape:cy="33.903736"
     inkscape:window-width="1440"
     inkscape:window-height="790"
     inkscape:window-x="0"
     inkscape:window-y="25"
     inkscape:window-maximized="1"
     inkscape:current-layer="svg5"
     inkscape:snap-page="true" />
  <defs
     id="defs2" />
  <path
     id="path10433"
     style="fill:#ff5555;fill-opacity:1;stroke-width:99.9999;stroke-linecap:round;stroke-linejoin:round;stroke-opacity:0.2"
     d="M 32 0 A 31.999999 31.999999 0 0 0 0 32 A 31.999999 31.999999 0 0 0 32 64 A 31.999999 31.999999 0 0 0 64 32 A 31.999999 31.999999 0 0 0 32 0 z M 25.568359 20.710938 C 27.419547 20.709684 29.445998 20.709521 31.564453 20.712891 C 48.707274 20.740179 47.605573 20.688937 49.472656 21.554688 C 53.120876 23.246287 55.014213 26.401857 54.845703 30.507812 C 54.751517 32.802964 54.082281 34.460353 52.615234 36.03125 C 50.595923 38.193503 48.216738 39.122759 44.335938 39.265625 L 43.574219 39.294922 L 43.482422 40.349609 C 43.266951 42.836667 42.426406 44.278404 40.724609 45.076172 L 40.060547 45.386719 L 29.339844 45.414062 C 19.262861 45.439764 18.582463 45.427546 18.009766 45.228516 C 16.822381 44.81581 16.011769 44.023309 15.605469 42.878906 C 15.488341 42.548991 15.455078 40.179297 15.455078 31.960938 C 15.455078 20.879967 15.450924 20.99858 15.970703 20.771484 C 16.048483 20.737505 20.014798 20.714695 25.568359 20.710938 z M 44.894531 24.794922 C 44.20848 24.794883 43.938792 24.834299 43.826172 24.927734 C 43.651407 25.072706 43.632812 25.575814 43.632812 30.046875 C 43.632812 34.644535 43.648385 35.015653 43.837891 35.130859 C 43.962086 35.20611 44.644028 35.243125 45.566406 35.224609 C 47.003889 35.195847 47.133516 35.172497 47.876953 34.820312 C 49.834922 33.892782 50.81811 32.192018 50.810547 29.746094 C 50.803744 27.560139 49.890414 26.093696 47.908203 25.087891 C 47.514048 24.887893 47.16345 24.841167 45.730469 24.806641 C 45.399533 24.798666 45.123215 24.794935 44.894531 24.794922 z M 32.994141 27.490234 C 31.736355 27.480696 30.430361 28.002194 29.566406 29.070312 C 27.637142 27.298652 23.294356 26.370976 22.490234 29.875 C 22.368435 30.405718 22.381422 31.045831 22.439453 31.585938 C 22.693328 33.948721 24.990443 35.785707 26.648438 37.248047 C 27.298266 37.821212 27.933917 38.430623 28.558594 39.03125 C 28.815851 39.278544 29.16015 39.718142 29.566406 39.652344 C 30.10164 39.565604 30.610106 38.88424 30.974609 38.529297 C 31.977272 37.552692 33.000994 36.600567 33.992188 35.609375 C 35.309952 34.291609 36.724197 32.891514 36.648438 30.880859 C 36.564453 28.651555 34.832442 27.504175 32.994141 27.490234 z "
     transform="scale(0.26458333)" />
</svg>
