<?xml version="1.0" encoding="UTF-8" standalone="no"?>
<!-- Created with Inkscape (http://www.inkscape.org/) -->

<svg
   width="186.67383"
   height="64"
   viewBox="0 0 49.390783 16.933333"
   version="1.1"
   id="svg5"
   sodipodi:docname="launch-connection.svg"
   inkscape:version="1.1 (c4e8f9e, 2021-05-24)"
   xmlns:inkscape="http://www.inkscape.org/namespaces/inkscape"
   xmlns:sodipodi="http://sodipodi.sourceforge.net/DTD/sodipodi-0.dtd"
   xmlns="http://www.w3.org/2000/svg"
   xmlns:svg="http://www.w3.org/2000/svg">
  <sodipodi:namedview
     id="namedview2146"
     pagecolor="#505050"
     bordercolor="#ffffff"
     borderopacity="1"
     inkscape:pageshadow="0"
     inkscape:pageopacity="0"
     inkscape:pagecheckerboard="1"
     showgrid="false"
     inkscape:zoom="4.1442118"
     inkscape:cx="92.418056"
     inkscape:cy="38.849366"
     inkscape:window-width="1440"
     inkscape:window-height="790"
     inkscape:window-x="0"
     inkscape:window-y="25"
     inkscape:window-maximized="0"
     inkscape:current-layer="svg5"
     inkscape:snap-page="true"
     inkscape:snap-object-midpoints="true"
     inkscape:snap-bbox="true"
     inkscape:bbox-paths="true"
     inkscape:bbox-nodes="true"
     inkscape:snap-bbox-edge-midpoints="true"
     inkscape:snap-bbox-midpoints="true"
     fit-margin-top="0"
     fit-margin-left="0"
     fit-margin-right="0"
     fit-margin-bottom="0" />
  <defs
     id="defs2" />
  <path
     id="rect1088"
     style="fill:#1f1f1f;fill-opacity:1;stroke:none;stroke-width:3.20828;stroke-linecap:round;stroke-linejoin:round"
     d="M 8.4666666,0 C 3.7761336,0 0,3.7761335 0,8.4666662 0,13.1572 3.7761336,16.933333 8.4666666,16.933333 H 40.924117 c 4.690533,0 8.466666,-3.776133 8.466666,-8.4666668 C 49.390783,3.7761335 45.61465,0 40.924117,0 Z M 37.109878,4.7676675 h 1.12603 v 2.4990723 c 0.190971,-0.2304819 0.431138,-0.4086989 0.720886,-0.5338175 0.296334,-0.125118 0.618884,-0.1875856 0.967899,-0.1875856 0.414867,0 0.78372,0.088851 1.106392,0.2666506 0.329261,0.1777999 0.586111,0.4411178 0.770496,0.7901326 0.190971,0.3490143 0.286806,0.7706323 0.286806,1.2645223 V 12.076782 H 40.972176 V 9.0345902 c 0,-0.487304 -0.122217,-0.859389 -0.365869,-1.116211 -0.243652,-0.263407 -0.575905,-0.3948075 -0.997357,-0.3948075 -0.42145,0 -0.757452,0.1314005 -1.00769,0.3948075 -0.243652,0.256822 -0.365352,0.628907 -0.365352,1.116211 v 3.0421918 h -1.12603 z M 7.3029132,5.2120849 h 1.1260296 v 5.9562261 h 2.3213052 v 0.908471 H 7.3029132 Z m 6.5722088,1.3332518 c 0.428037,0 0.800121,0.085617 1.116211,0.2568319 0.322674,0.1646293 0.579525,0.371947 0.770495,0.6221843 V 6.6342203 h 1.135848 v 5.4425617 h -1.135848 v -0.809771 c -0.19097,0.256823 -0.451054,0.470609 -0.780314,0.641824 -0.329259,0.171214 -0.704577,0.256831 -1.126029,0.256831 -0.467549,0 -0.895634,-0.118468 -1.28416,-0.355534 C 12.182799,11.56648 11.873182,11.230993 11.6427,10.802958 11.418804,10.368335 11.306803,9.8777822 11.306803,9.3312132 c 0,-0.546571 0.112001,-1.030656 0.335897,-1.452108 0.230482,-0.4214518 0.540099,-0.7477532 0.928625,-0.9782346 0.395111,-0.2370667 0.829663,-0.3555339 1.303797,-0.3555339 z m 13.652913,0 c 0.428038,0 0.809824,0.088851 1.145667,0.2666506 0.342429,0.1777999 0.608981,0.4411178 0.799949,0.7901326 0.190971,0.3490143 0.286806,0.7706323 0.286806,1.2645223 V 12.076782 H 28.644246 V 9.0345902 c 0,-0.487304 -0.122216,-0.859389 -0.365868,-1.116211 -0.243652,-0.263407 -0.575906,-0.3948075 -0.997355,-0.3948075 -0.421457,0 -0.757455,0.1314005 -1.007692,0.3948075 -0.243652,0.256822 -0.365352,0.628907 -0.365352,1.116211 v 3.0421918 h -1.12603 V 6.6342203 h 1.12603 v 0.6221841 c 0.184385,-0.2238965 0.418087,-0.3983635 0.701248,-0.5234821 0.289751,-0.125118 0.596133,-0.1875856 0.918808,-0.1875856 z m 5.95054,0 c 0.658519,0 1.201838,0.158301 1.629876,0.4743897 0.434623,0.3095041 0.727556,0.7537558 0.879014,1.3332518 H 34.772554 C 34.673775,8.0829862 34.515993,7.8724352 34.29868,7.7209757 34.08137,7.5695163 33.807836,7.4935994 33.478575,7.4935994 c -0.460962,0 -0.829812,0.1647672 -1.106392,0.4940268 -0.269991,0.322674 -0.404625,0.777143 -0.404625,1.363224 0,0.586082 0.134634,1.0437848 0.404625,1.3730428 0.27658,0.329258 0.64543,0.493509 1.106392,0.493509 0.651934,0 1.083252,-0.286467 1.293979,-0.859378 h 1.214911 c -0.158043,0.553154 -0.45421,0.994691 -0.888833,1.323949 -0.434623,0.322675 -0.974709,0.483693 -1.620057,0.483693 -0.520229,0 -0.981165,-0.115234 -1.38286,-0.345716 -0.401696,-0.237066 -0.717781,-0.566084 -0.948262,-0.987536 -0.223898,-0.428037 -0.335894,-0.9218238 -0.335899,-1.4815638 0,-0.55974 0.112001,-1.050293 0.335899,-1.471745 0.230481,-0.428037 0.546566,-0.7575719 0.948262,-0.988053 0.401695,-0.2304815 0.862631,-0.3457155 1.38286,-0.3457155 z m -15.151012,0.088884 h 1.116211 v 3.0323735 c 0,0.4873038 0.121701,0.8631368 0.365352,1.1265458 0.243652,0.25682 0.575903,0.38499 0.997356,0.38499 0.421451,0 0.754219,-0.12817 0.997871,-0.38499 0.250238,-0.263409 0.375171,-0.639242 0.375171,-1.1265458 V 6.6342203 h 1.12603 v 5.4425617 h -1.12603 v -0.641821 c -0.177801,0.223895 -0.411501,0.401589 -0.701249,0.533302 -0.283163,0.125116 -0.585797,0.187584 -0.908471,0.187584 -0.428037,0 -0.813572,-0.08885 -1.156002,-0.26665 -0.335845,-0.1778 -0.602395,-0.441118 -0.799952,-0.790133 -0.19097,-0.349014 -0.286287,-0.770633 -0.286287,-1.2645228 z m -4.215246,0.8893514 c -0.289748,0 -0.560049,0.072167 -0.810287,0.2170409 -0.250237,0.1382882 -0.454321,0.3456062 -0.612365,0.6221842 -0.151461,0.269992 -0.22686,0.59306 -0.22686,0.968416 0,0.375354 0.0754,0.7043738 0.22686,0.9875368 0.158044,0.283162 0.362128,0.500697 0.612365,0.652155 0.256823,0.144875 0.527124,0.217043 0.810287,0.217043 0.289748,0 0.559531,-0.07217 0.809769,-0.217043 0.250237,-0.144872 0.451088,-0.355941 0.602547,-0.632518 0.158044,-0.283162 0.237195,-0.6121798 0.237195,-0.9875368 0,-0.375355 -0.07915,-0.701657 -0.237195,-0.978235 C 15.373174,8.0960372 15.172323,7.8854872 14.922086,7.740613 14.671848,7.595739 14.402065,7.5235721 14.112317,7.5235721 Z" />
</svg>
