<?xml version="1.0" encoding="UTF-8" standalone="no"?>
<svg
   id="main-logo"
   style="width:25vw; height:50vh; position: fixed; z-index: 2; top:25vh;"
   viewBox="0 0 135.46666 135.46667"
   version="1.1"
   sodipodi:docname="LemonOrangeLogoPlain.svg"
   inkscape:version="1.1.2 (76b9e6a115, 2022-02-25)"
   xmlns:inkscape="http://www.inkscape.org/namespaces/inkscape"
   xmlns:sodipodi="http://sodipodi.sourceforge.net/DTD/sodipodi-0.dtd"
   xmlns="http://www.w3.org/2000/svg"
   xmlns:svg="http://www.w3.org/2000/svg">
  <defs
     id="defs3642" />
  <sodipodi:namedview
     id="namedview3640"
     pagecolor="#505050"
     bordercolor="#ffffff"
     borderopacity="1"
     inkscape:pageshadow="0"
     inkscape:pageopacity="0"
     inkscape:pagecheckerboard="1"
     showgrid="false"
     inkscape:snap-page="true"
     inkscape:zoom="7.8828315"
     inkscape:cx="78.525083"
     inkscape:cy="63.555843"
     inkscape:window-width="2560"
     inkscape:window-height="1305"
     inkscape:window-x="3440"
     inkscape:window-y="32"
     inkscape:window-maximized="1"
     inkscape:current-layer="main-logo" />
  <path
     class="node-logo1"
     id="bottomL"
     d="m 55.613285,38.416168 c 0.395655,-0.376994 0.910979,-0.625326 1.426304,-0.625326 h 4.277499 c 1.069373,0 2.138748,1.069375 2.138748,2.13875 v 40.636236 h 4.277499 c 1.069372,0 2.138748,1.069373 2.138748,2.138746 v 4.277499 c 0,1.069377 -1.069375,2.138749 -2.138748,2.138749 H 57.039589 c -1.069375,0 -2.138748,-1.069372 -2.138748,-2.138749 V 39.929592 c 0,-0.55405 0.287056,-1.1081 0.712444,-1.513424"
     style="fill:#ffffff;fill-opacity:1;stroke:none;stroke-width:1.01043;stroke-linecap:butt;stroke-linejoin:round;stroke-miterlimit:4"
     sodipodi:nodetypes="cssscsssssscc" />
  <path
     class="node-logo1"
     id="bottomS"
     d="m 83.367752,81.153687 c 0.383239,-0.364626 0.902376,-0.587859 1.475569,-0.587859 h 2.138753 c 1.184866,0 2.138748,0.953882 2.138748,2.138751 v 4.277494 c 0,1.184871 -0.953882,2.138753 -2.138748,2.138753 h -2.138753 c -1.184864,0 -2.138746,-0.953882 -2.138746,-2.138753 v -4.277494 c 0,-0.611674 0.254211,-1.161789 0.663177,-1.550892"
     style="fill:#ffffff;fill-opacity:1;stroke:none;stroke-width:1.01043;stroke-linecap:butt;stroke-linejoin:round;stroke-miterlimit:4"
     sodipodi:nodetypes="cssssssssc" />
  <path
     class="node-logo1"
     id="topL"
     d="m 67.733332,46.345839 c -1.069373,0 -2.138748,1.069375 -2.138748,2.13875 l 2e-6,4.277499 c 0,1.069374 1.069374,2.138748 2.138748,2.138748 h 4.277499 l -2e-6,40.636233 c 0,1.069376 1.069377,2.138748 2.13875,2.138748 l 4.109654,0 c 1.13289,0 2.306593,-1.069372 2.306593,-2.138748 v -47.05248 c 0,-1.069375 -1.069373,-2.13875 -2.138748,-2.13875 H 67.733332"
     style="fill:#ffffff;fill-opacity:1;stroke:none;stroke-width:1.01043;stroke-linecap:butt;stroke-linejoin:round;stroke-miterlimit:4"
     sodipodi:nodetypes="cssscssccsss" />
  <path
     class="node-logo1"
     id="topS"
     d="m 47.087993,46.862218 c 0.374192,-0.322105 0.861873,-0.516379 1.396598,-0.516379 h 2.138748 c 1.184867,0 2.138749,0.953882 2.138749,2.13875 v 4.277496 c 0,1.184867 -0.953882,2.138749 -2.138749,2.138749 h -2.138748 c -1.184869,0 -2.13875,-0.953882 -2.13875,-2.138749 v -4.277496 c 0,-0.650143 0.287192,-1.230742 0.742152,-1.622371"
     style="fill:#ffffff;fill-opacity:1;stroke:none;stroke-width:1.01043;stroke-linecap:butt;stroke-linejoin:round;stroke-miterlimit:4"
     sodipodi:nodetypes="cssssssssc" />
</svg>
