<?xml version="1.0" encoding="UTF-8" standalone="no"?>
<!-- Created with Inkscape (http://www.inkscape.org/) -->

<svg
   width="64"
   height="64"
   viewBox="0 0 16.933333 16.933333"
   version="1.1"
   id="svg5"
   sodipodi:docname="medium-connection.svg"
   inkscape:version="1.1 (c4e8f9e, 2021-05-24)"
   xmlns:inkscape="http://www.inkscape.org/namespaces/inkscape"
   xmlns:sodipodi="http://sodipodi.sourceforge.net/DTD/sodipodi-0.dtd"
   xmlns="http://www.w3.org/2000/svg"
   xmlns:svg="http://www.w3.org/2000/svg">
  <sodipodi:namedview
     id="namedview2036"
     pagecolor="#505050"
     bordercolor="#ffffff"
     borderopacity="1"
     inkscape:pageshadow="0"
     inkscape:pageopacity="0"
     inkscape:pagecheckerboard="1"
     showgrid="false"
     inkscape:zoom="8.1001213"
     inkscape:cx="24.999626"
     inkscape:cy="26.35763"
     inkscape:window-width="1440"
     inkscape:window-height="790"
     inkscape:window-x="0"
     inkscape:window-y="25"
     inkscape:window-maximized="1"
     inkscape:current-layer="svg5"
     inkscape:snap-page="true" />
  <defs
     id="defs2" />
  <path
     id="path3327"
     style="fill:#1f1f1f;fill-opacity:1;stroke-width:99.9999;stroke-linecap:round;stroke-linejoin:round;stroke-opacity:0.2"
     d="M 32 0 A 31.999999 31.999999 0 0 0 0 32 A 31.999999 31.999999 0 0 0 32 64 A 31.999999 31.999999 0 0 0 64 32 A 31.999999 31.999999 0 0 0 32 0 z M 23.378906 20.794922 C 24.141367 20.792128 24.909758 20.867937 25.671875 21.027344 C 28.330394 21.583409 30.682802 23.095859 32.318359 25.298828 C 34.281406 27.942905 34.98126 31.302289 34.244141 34.548828 C 33.857401 36.252168 33.027711 37.908538 31.880859 39.271484 C 31.520262 39.700019 30.749468 40.449956 30.3125 40.796875 C 28.662111 42.107147 26.747747 42.901226 24.619141 43.15625 C 24.21757 43.204363 22.886008 43.222624 22.480469 43.185547 C 19.774585 42.939054 17.354079 41.790938 15.466797 39.857422 C 11.488286 35.781443 11.19208 29.39498 14.773438 24.929688 C 16.880498 22.302572 20.074908 20.807029 23.378906 20.794922 z M 41.195312 21.455078 C 41.588398 21.456804 41.98164 21.537473 42.369141 21.697266 C 43.820479 22.29575 45.109152 24.024601 45.904297 26.441406 C 46.88344 29.417469 47.009594 33.218345 46.234375 36.408203 C 45.434888 39.697916 43.816323 41.969373 41.917969 42.466797 C 41.590246 42.552668 40.960844 42.577156 40.644531 42.515625 C 38.913916 42.179171 37.40804 40.421918 36.480469 37.658203 C 36.100522 36.52615 35.857025 35.369984 35.705078 33.972656 C 35.63445 33.323186 35.60543 31.384183 35.65625 30.660156 C 35.864067 27.699277 36.692021 25.097634 37.970703 23.376953 C 38.265355 22.980445 38.922695 22.325818 39.253906 22.099609 C 39.885118 21.668503 40.540171 21.452201 41.195312 21.455078 z M 49.798828 22.554688 C 50.052337 22.570643 50.307373 22.824013 50.548828 23.324219 C 51.055258 24.373342 51.482107 26.615587 51.634766 29.037109 C 51.645726 29.209048 51.660032 29.444857 51.667969 29.5625 C 51.73687 30.579157 51.747746 32.993856 51.6875 34.121094 C 51.469799 38.204631 50.79922 41.029371 49.957031 41.414062 C 49.884616 41.446944 49.80249 41.474609 49.775391 41.474609 C 49.748178 41.474609 49.668081 41.446982 49.595703 41.414062 C 48.589718 40.954555 47.819507 36.878421 47.820312 32.015625 C 47.820808 29.008798 48.109412 26.225435 48.609375 24.419922 C 48.957654 23.162218 49.376313 22.528095 49.798828 22.554688 z "
     transform="scale(0.26458333)" />
</svg>
