<?xml version="1.0" encoding="UTF-8" standalone="no"?>
<!-- Created with Inkscape (http://www.inkscape.org/) -->

<svg
   width="64"
   height="64"
   viewBox="0 0 16.933333 16.933333"
   version="1.1"
   id="svg5"
   sodipodi:docname="reddit-connection.svg"
   inkscape:version="1.1 (c4e8f9e, 2021-05-24)"
   xmlns:inkscape="http://www.inkscape.org/namespaces/inkscape"
   xmlns:sodipodi="http://sodipodi.sourceforge.net/DTD/sodipodi-0.dtd"
   xmlns="http://www.w3.org/2000/svg"
   xmlns:svg="http://www.w3.org/2000/svg">
  <sodipodi:namedview
     id="namedview2036"
     pagecolor="#505050"
     bordercolor="#ffffff"
     borderopacity="1"
     inkscape:pageshadow="0"
     inkscape:pageopacity="0"
     inkscape:pagecheckerboard="1"
     showgrid="false"
     inkscape:zoom="9.859375"
     inkscape:cx="30.123613"
     inkscape:cy="30.427892"
     inkscape:window-width="1440"
     inkscape:window-height="790"
     inkscape:window-x="0"
     inkscape:window-y="25"
     inkscape:window-maximized="0"
     inkscape:current-layer="svg5" />
  <defs
     id="defs2" />
  <g
     id="layer1"
     style="fill:#1f1f1f;fill-opacity:1">
    <g
       id="g1314"
       transform="scale(0.03572946)"
       style="fill:#1f1f1f;fill-opacity:1" />
    <g
       id="g1316"
       transform="scale(0.03572946)"
       style="fill:#1f1f1f;fill-opacity:1" />
    <g
       id="g1318"
       transform="scale(0.03572946)"
       style="fill:#1f1f1f;fill-opacity:1" />
    <g
       id="g1320"
       transform="scale(0.03572946)"
       style="fill:#1f1f1f;fill-opacity:1" />
    <g
       id="g1322"
       transform="scale(0.03572946)"
       style="fill:#1f1f1f;fill-opacity:1" />
    <g
       id="g1324"
       transform="scale(0.03572946)"
       style="fill:#1f1f1f;fill-opacity:1" />
    <g
       id="g1326"
       transform="scale(0.03572946)"
       style="fill:#1f1f1f;fill-opacity:1" />
    <g
       id="g1328"
       transform="scale(0.03572946)"
       style="fill:#1f1f1f;fill-opacity:1" />
    <g
       id="g1330"
       transform="scale(0.03572946)"
       style="fill:#1f1f1f;fill-opacity:1" />
    <g
       id="g1332"
       transform="scale(0.03572946)"
       style="fill:#1f1f1f;fill-opacity:1" />
    <g
       id="g1334"
       transform="scale(0.03572946)"
       style="fill:#1f1f1f;fill-opacity:1" />
    <g
       id="g1336"
       transform="scale(0.03572946)"
       style="fill:#1f1f1f;fill-opacity:1" />
    <g
       id="g1338"
       transform="scale(0.03572946)"
       style="fill:#1f1f1f;fill-opacity:1" />
    <g
       id="g1340"
       transform="scale(0.03572946)"
       style="fill:#1f1f1f;fill-opacity:1" />
    <g
       id="g1342"
       transform="scale(0.03572946)"
       style="fill:#1f1f1f;fill-opacity:1" />
    <g
       id="g883"
       transform="scale(0.05812643)"
       style="fill:#1f1f1f;fill-opacity:1">
      <g
         id="g830"
         style="fill:#1f1f1f;fill-opacity:1" />
      <g
         id="g832"
         style="fill:#1f1f1f;fill-opacity:1" />
      <g
         id="g834"
         style="fill:#1f1f1f;fill-opacity:1" />
      <g
         id="g836"
         style="fill:#1f1f1f;fill-opacity:1" />
      <g
         id="g838"
         style="fill:#1f1f1f;fill-opacity:1" />
      <g
         id="g840"
         style="fill:#1f1f1f;fill-opacity:1" />
      <g
         id="g842"
         style="fill:#1f1f1f;fill-opacity:1" />
      <g
         id="g844"
         style="fill:#1f1f1f;fill-opacity:1" />
      <g
         id="g846"
         style="fill:#1f1f1f;fill-opacity:1" />
      <g
         id="g848"
         style="fill:#1f1f1f;fill-opacity:1" />
      <g
         id="g850"
         style="fill:#1f1f1f;fill-opacity:1" />
      <g
         id="g852"
         style="fill:#1f1f1f;fill-opacity:1" />
      <g
         id="g854"
         style="fill:#1f1f1f;fill-opacity:1" />
      <g
         id="g856"
         style="fill:#1f1f1f;fill-opacity:1" />
      <g
         id="g858"
         style="fill:#1f1f1f;fill-opacity:1" />
      <path
         id="circle1188"
         style="fill:#1f1f1f;stroke-width:0.0625002;fill-opacity:1"
         d="M 32 0 A 32.000004 32.000004 0 0 0 0 32 A 32.000004 32.000004 0 0 0 32 64 A 32.000004 32.000004 0 0 0 64 32 A 32.000004 32.000004 0 0 0 32 0 z M 44.388672 14.335938 C 46.100038 14.335937 47.486328 15.722228 47.486328 17.433594 C 47.486328 19.144959 46.100038 20.53125 44.388672 20.53125 C 42.731514 20.53125 41.384082 19.223702 41.306641 17.582031 L 34.847656 16.210938 L 32.873047 25.511719 C 37.418618 25.666594 41.50876 27.052184 44.474609 29.189453 C 45.256721 28.438312 46.317021 27.972656 47.486328 27.972656 C 49.879139 27.972656 51.822266 29.917733 51.822266 32.310547 C 51.822266 34.083862 50.761912 35.601686 49.244141 36.275391 C 49.305973 36.701296 49.34375 37.134779 49.34375 37.576172 C 49.34375 44.251268 41.592599 49.664062 32.005859 49.664062 C 22.419117 49.664062 14.652344 44.251268 14.652344 37.576172 C 14.652344 37.134779 14.684212 36.701227 14.753906 36.267578 C 13.243878 35.586129 12.189453 34.076118 12.189453 32.310547 C 12.189453 29.917733 14.13453 27.972656 16.527344 27.972656 C 17.688904 27.972656 18.741321 28.430499 19.523438 29.181641 C 22.528005 27.013395 26.677703 25.635549 31.292969 25.503906 L 33.5 15.126953 C 33.538718 14.925616 33.663621 14.747084 33.833984 14.638672 C 34.004348 14.522549 34.212723 14.482843 34.414062 14.529297 L 41.623047 16.0625 C 42.126391 15.040327 43.172907 14.335938 44.388672 14.335938 z M 25.175781 32.310547 C 23.472161 32.310547 22.078125 33.696839 22.078125 35.408203 C 22.078125 37.119568 23.464417 38.503906 25.175781 38.503906 C 26.887146 38.503906 28.273438 37.119568 28.273438 35.408203 C 28.273437 33.704581 26.887146 32.310547 25.175781 32.310547 z M 38.8125 32.310547 C 37.108882 32.310547 35.714844 33.696839 35.714844 35.408203 C 35.714844 37.111826 37.101138 38.503906 38.8125 38.503906 C 40.516123 38.503906 41.910156 37.119568 41.910156 35.408203 C 41.910156 33.704581 40.523867 32.310547 38.8125 32.310547 z M 25.208984 42.228516 C 25.002808 42.228516 24.797453 42.306052 24.642578 42.460938 C 24.332828 42.778432 24.332828 43.289839 24.642578 43.599609 C 26.756618 45.713633 30.805512 45.876953 31.998047 45.876953 C 33.18284 45.876953 37.241429 45.713653 39.355469 43.599609 C 39.67317 43.282122 39.673051 42.778417 39.363281 42.460938 C 39.045787 42.151167 38.542091 42.151167 38.224609 42.460938 C 36.884944 43.792857 34.03465 44.265625 31.998047 44.265625 C 29.961446 44.265625 27.113172 43.792857 25.78125 42.460938 C 25.622504 42.306052 25.415161 42.228516 25.208984 42.228516 z "
         transform="scale(4.5518593)" />
    </g>
  </g>
</svg>
